HIERARCHY
ROOT Hips
{
	OFFSET -0.179506 -22.333345 2.821913
	CHANNELS 6 Xposition Yposition Zposition Zrotation Yrotation Xrotation 
	JOINT LeftUpLeg
	{
		OFFSET 6.951974 -9.140623 -0.681533
		CHANNELS 3 Zrotation Yrotation Xrotation
		JOINT LeftLeg
		{
			OFFSET 3.427654 -37.519855 -0.449580
			CHANNELS 3 Zrotation Yrotation Xrotation
			JOINT LeftFoot
			{
				OFFSET -1.359570 -39.796059 -4.369333
				CHANNELS 3 Zrotation Yrotation Xrotation
				JOINT LeftToe
				{
					OFFSET 2.635814 -5.579078 11.928840
					CHANNELS 3 Zrotation Yrotation Xrotation
					End Site
					{
						OFFSET 0.000000 0.000000 0.000000
					}
				}
			}
		}
	}
	JOINT RightUpLeg
	{
		OFFSET -6.767048 -9.052170 -0.431982
		CHANNELS 3 Zrotation Yrotation Xrotation
		JOINT RightLeg
		{
			OFFSET -3.829005 -38.256897 -0.885003
			CHANNELS 3 Zrotation Yrotation Xrotation
			JOINT RightFoot
			{
				OFFSET 1.577377 -39.841461 -4.231180
				CHANNELS 3 Zrotation Yrotation Xrotation
				JOINT RightToe
				{
					OFFSET -2.537174 -4.814398 12.334795
					CHANNELS 3 Zrotation Yrotation Xrotation
					End Site
					{
						OFFSET 0.000000 0.000000 0.000000
					}
				}
			}
		}
	}
	JOINT Spine
	{
		OFFSET -0.253288 10.896323 -2.669631
		CHANNELS 3 Zrotation Yrotation Xrotation
		JOINT Spine1
		{
			OFFSET 0.548704 13.518043 0.109247
			CHANNELS 3 Zrotation Yrotation Xrotation
			JOINT Spine2
			{
				OFFSET 0.145701 5.292222 2.542457
				CHANNELS 3 Zrotation Yrotation Xrotation
				JOINT Neck
				{
					OFFSET -0.277840 21.387037 -4.285703
					CHANNELS 3 Zrotation Yrotation Xrotation
					JOINT Head
					{
						OFFSET 0.515184 6.496960 5.134897
						CHANNELS 3 Zrotation Yrotation Xrotation
						End Site
						{
							OFFSET 0.000000 0.000000 0.000000
						}
					}
				}
				JOINT LeftShoulder
				{
					OFFSET 7.884473 12.174932 -3.408961
					CHANNELS 3 Zrotation Yrotation Xrotation
					JOINT LeftArm
					{
						OFFSET 9.097692 3.046888 -0.886815
						CHANNELS 3 Zrotation Yrotation Xrotation
						JOINT LeftForeArm
						{
							OFFSET 25.961220 -1.277207 -2.745643
							CHANNELS 3 Zrotation Yrotation Xrotation
							JOINT LeftHand
							{
								OFFSET 24.923361 0.898606 -0.117091
								CHANNELS 3 Zrotation Yrotation Xrotation
								End Site
								{
									OFFSET 0.000000 0.000000 0.000000
								}
							}
						}
					}
				}
				JOINT RightShoulder
				{
					OFFSET -8.175920 11.883285 -3.861528
					CHANNELS 3 Zrotation Yrotation Xrotation
					JOINT RightArm
					{
						OFFSET -9.601238 3.255117 -0.914307
						CHANNELS 3 Zrotation Yrotation Xrotation
						JOINT RightForeArm
						{
							OFFSET -25.374195 -1.332924 -2.140099
							CHANNELS 3 Zrotation Yrotation Xrotation
							JOINT RightHand
							{
								OFFSET -25.529810 0.777228 -0.555919
								CHANNELS 3 Zrotation Yrotation Xrotation
								End Site
								{
									OFFSET 0.000000 0.000000 0.000000
								}
							}
						}
					}
				}
			}
		}
	}
}
MOTION
Frames: 6
Frame Time: 0.033333
28.603786 -9.538835 90.789764 -178.401222 1.143167 88.414000 5.626122 4.175883 4.751376 -4.487003 -1.225975 -3.346846 0.199855 9.767072 -3.224689 nan nan nan -4.301471 -1.997367 1.472611 4.748967 2.541607 -1.142165 3.665879 -2.698754 -5.769813 nan nan nan 1.509565 -0.097283 5.396675 1.068604 -3.124395 2.142547 0.653719 -1.605813 -2.297835 1.750473 3.289841 -0.300800 0.652839 4.311258 14.355820 -30.254993 0.766442 4.857731 -54.143735 -5.412587 12.909820 6.612924 -23.787438 6.996700 -3.254294 -10.926150 -1.108748 29.113279 3.164966 2.925077 53.699091 6.055951 15.739407 -8.260727 18.102881 0.856844 6.838915 5.771286 0.346417 
28.574415 -9.515169 90.755692 -178.504491 1.118296 88.325544 5.599837 4.220191 4.864775 -4.564352 -1.289485 -3.351779 0.282608 9.763497 -3.260924 nan nan nan -4.466899 -1.982375 1.556191 4.931131 2.505261 -1.060987 3.796161 -2.539729 -5.921416 nan nan nan 1.517098 -0.091585 5.418565 1.049018 -3.146155 2.240171 0.733097 -1.489539 -2.502368 1.260489 3.960312 -0.036660 0.182773 5.062773 13.846292 -30.150819 0.599843 5.122799 -54.484750 -5.270237 12.776439 6.973172 -23.837120 6.956345 -4.160069 -11.024888 -0.832165 28.694704 3.234428 2.928823 54.349682 5.937468 15.462816 -8.870690 17.926059 0.616043 7.652573 5.736214 0.583398 
28.684216 -9.408727 90.758232 -177.742179 1.361987 88.694634 6.090863 4.240739 4.100673 -4.742540 -1.195113 -2.718504 0.112886 9.737563 -3.188009 nan nan nan -4.111578 -2.283577 1.694841 4.977901 2.605435 -1.731880 3.438522 -3.010533 -5.930899 nan nan nan 1.551367 -0.379738 4.708169 1.152838 -3.526992 2.440275 0.801673 -1.511266 -2.609745 1.479488 3.772878 0.192127 -0.103914 4.931483 14.076583 -30.297446 0.694657 5.406829 -54.463856 -5.121314 13.063473 7.425009 -24.187035 6.582941 -4.673068 -10.168384 -1.147173 28.364892 3.009273 2.392056 55.242554 5.701910 15.635954 -9.193597 19.094411 0.135915 7.855670 2.971401 -1.229635 
28.712919 -9.394962 90.739418 -177.959283 1.045825 88.500534 5.941282 4.093278 4.610803 -4.903763 -2.389724 -2.835301 3.348412 10.939852 -10.465757 nan nan nan -4.512790 -2.571918 1.784104 5.001506 3.237074 -1.589890 3.602676 -2.990750 -6.291267 nan nan nan 1.083403 -0.295138 5.425702 1.532727 -3.683944 2.638964 0.821620 -1.512294 -2.974291 0.894706 3.666291 -0.926588 -0.246807 5.492538 14.130934 -30.289961 1.282918 5.024093 -54.560482 -4.941082 12.892118 7.412800 -24.965623 7.033197 -5.569966 -10.252460 -0.971845 27.257627 3.072476 1.495169 56.566045 5.281136 15.660721 -9.554508 19.380072 0.718517 8.882920 2.110407 -1.132882 
28.743559 -9.436624 90.735130 -178.020715 1.140730 88.492650 6.082204 4.138792 4.564959 -4.983257 -2.259800 -2.784646 3.258882 10.960975 -10.293086 nan nan nan -4.328674 -2.517778 1.683674 4.930711 3.206984 -1.528901 3.554784 -3.045279 -6.317397 nan nan nan 1.162100 -0.409014 5.590612 1.479409 -3.575700 2.339730 0.881964 -1.501113 -2.735443 1.001191 3.743245 -1.459049 -0.289914 5.683234 14.753534 -30.111783 1.252571 5.115380 -54.798303 -4.958019 12.874690 7.487991 -25.041239 7.458285 -5.349742 -10.415899 -1.364664 27.013134 3.114243 1.553320 56.899701 5.381711 15.779010 -9.674268 19.406336 0.977953 8.784977 2.055749 -1.475836 
28.747440 -9.475129 90.764191 -178.080998 1.173300 88.462971 6.118959 4.207115 4.544363 -5.096008 -2.004038 -2.704556 3.075028 10.990014 -10.205919 nan nan nan -4.258173 -2.509213 1.600495 4.942917 3.143959 -1.432399 3.577542 -3.064366 -6.319124 nan nan nan 1.237024 -0.448784 5.737443 1.412771 -3.468932 2.182837 0.924402 -1.567363 -2.594615 1.169655 3.834550 -2.041949 -0.490887 5.739657 15.513566 -30.105571 1.177384 5.170768 -54.813856 -4.910251 12.892746 7.518122 -25.070431 7.916445 -5.294519 -10.779176 -1.444889 26.940778 3.144096 1.593729 57.016904 5.466255 15.874912 -9.782817 19.407842 1.163142 8.744005 2.056379 -1.565908 
